<?xml version="1.0" standalone="no"?>
<!DOCTYPE svg PUBLIC "-//W3C//DTD SVG 20010904//EN"
 "http://www.w3.org/TR/2001/REC-SVG-20010904/DTD/svg10.dtd">
<svg version="1.0" xmlns="http://www.w3.org/2000/svg"
 width="2000.000000pt" height="2000.000000pt" viewBox="0 0 2000.000000 2000.000000"
 preserveAspectRatio="xMidYMid meet">

<g transform="translate(0.000000,2000.000000) scale(0.100000,-0.100000)"
fill="#000000" stroke="none">
<path d="M9530 13849 c-191 -6 -376 -24 -575 -54 -192 -29 -227 -35 -235 -40
-8 -5 -95 -24 -195 -44 -22 -4 -56 -12 -75 -18 -19 -6 -60 -18 -90 -26 -87
-24 -264 -79 -280 -87 -9 -4 -30 -11 -48 -14 -17 -4 -34 -12 -37 -17 -4 -5
-13 -9 -22 -9 -8 0 -31 -7 -51 -16 -21 -9 -52 -22 -70 -30 -18 -8 -37 -14 -43
-14 -5 0 -37 -13 -72 -29 -34 -16 -93 -44 -132 -61 -247 -112 -588 -306 -752
-427 -40 -29 -75 -53 -78 -53 -6 0 -166 -119 -175 -130 -3 -3 -34 -28 -70 -55
-36 -27 -67 -52 -70 -55 -3 -3 -41 -36 -85 -75 -95 -82 -405 -391 -457 -455
-20 -25 -53 -63 -73 -85 -50 -54 -221 -274 -280 -360 -115 -167 -153 -225
-198 -300 -26 -44 -52 -87 -57 -95 -27 -44 -112 -202 -140 -260 -12 -25 -26
-52 -31 -60 -5 -8 -12 -22 -15 -30 -4 -8 -17 -37 -29 -65 -21 -46 -48 -107
-79 -180 -8 -16 -22 -52 -31 -80 -10 -27 -22 -54 -27 -59 -4 -6 -8 -16 -8 -24
0 -8 -6 -28 -14 -45 -8 -18 -16 -41 -19 -52 -3 -11 -15 -45 -26 -75 -12 -30
-26 -71 -31 -90 -5 -19 -17 -60 -26 -90 -31 -105 -73 -271 -99 -395 -9 -44
-21 -102 -27 -130 -6 -27 -14 -77 -18 -110 -13 -100 -30 -226 -41 -295 -17
-98 -23 -783 -9 -915 6 -60 15 -155 20 -211 5 -55 14 -113 20 -128 5 -15 10
-44 10 -64 0 -20 7 -71 16 -112 8 -41 22 -109 31 -150 25 -121 66 -285 97
-390 9 -30 21 -72 27 -93 5 -21 13 -45 18 -55 12 -24 31 -81 41 -121 5 -18 13
-38 19 -44 6 -6 11 -20 11 -31 0 -12 7 -30 15 -40 8 -11 15 -28 15 -38 0 -10
4 -26 10 -36 5 -9 19 -39 30 -67 12 -27 28 -64 36 -82 8 -17 14 -36 14 -42 0
-6 5 -11 10 -11 6 0 10 -7 10 -16 0 -9 6 -28 14 -42 8 -15 32 -63 53 -107 93
-190 255 -468 350 -600 23 -33 62 -87 85 -120 65 -93 179 -237 301 -380 107
-126 513 -521 549 -534 5 -2 22 -15 37 -30 56 -54 312 -251 326 -251 3 0 11
-5 18 -10 60 -50 273 -185 442 -280 109 -62 457 -230 475 -230 6 0 18 -4 28
-10 9 -5 40 -19 67 -30 28 -12 59 -25 70 -30 11 -4 45 -16 75 -25 30 -10 67
-24 82 -31 14 -8 35 -14 46 -14 11 0 33 -7 48 -15 16 -8 36 -15 44 -15 9 0 20
-4 25 -9 6 -5 30 -14 55 -19 25 -6 70 -18 100 -27 30 -9 73 -20 95 -24 22 -4
56 -12 75 -18 61 -19 174 -43 202 -43 15 0 39 -5 55 -11 15 -6 60 -15 98 -19
39 -5 97 -13 130 -19 255 -41 607 -57 949 -42 138 7 269 16 291 21 22 5 60 10
85 10 51 0 288 39 430 71 25 6 65 14 90 19 89 18 334 82 375 99 11 5 49 18 85
29 85 27 128 42 167 59 17 7 35 13 40 13 7 0 100 36 178 70 109 46 378 178
485 236 281 154 644 407 885 616 139 121 391 367 387 379 -1 5 2 8 7 7 5 -2
41 40 81 92 105 140 129 198 142 350 32 367 -51 618 -280 848 -48 48 -103 99
-122 113 -19 14 -76 55 -126 92 -50 37 -94 67 -97 67 -3 0 -35 20 -71 45 -37
25 -69 45 -72 45 -2 0 -17 8 -32 19 -15 10 -74 49 -132 87 -138 89 -278 202
-351 284 -33 35 -59 68 -59 72 0 4 -13 26 -28 50 -82 127 -117 255 -117 433 0
117 13 191 48 285 23 60 61 134 77 150 3 3 18 24 34 47 61 91 243 244 391 329
31 18 288 145 310 154 22 8 79 34 166 74 31 14 61 26 67 26 6 0 39 13 74 28
35 16 79 35 98 42 142 54 356 165 420 217 103 84 208 193 244 254 20 33 36 63
36 65 0 3 11 29 24 57 57 126 81 197 113 342 14 65 17 122 16 310 -1 127 -7
264 -13 305 -6 41 -15 109 -19 150 -9 74 -19 127 -47 226 -8 28 -14 58 -14 67
0 9 -6 31 -14 49 -8 18 -22 60 -32 93 -9 33 -28 85 -41 115 -13 30 -30 69 -37
85 -17 40 -84 175 -99 200 -7 11 -24 39 -39 63 -16 24 -28 47 -28 53 0 31 -63
-25 -372 -332 -188 -187 -360 -356 -381 -375 -20 -19 -34 -34 -30 -34 5 0 -5
-9 -22 -19 -16 -11 -52 -40 -80 -65 -27 -25 -53 -46 -57 -46 -5 0 -8 -11 -8
-25 0 -21 5 -25 28 -25 15 0 36 -7 46 -15 11 -8 28 -15 38 -15 10 0 18 -4 18
-10 0 -5 5 -10 11 -10 13 0 91 -61 124 -96 68 -73 110 -142 142 -229 22 -62
27 -335 6 -357 -7 -6 -13 -18 -13 -25 0 -20 -43 -113 -52 -113 -4 0 -8 -6 -8
-13 0 -22 -100 -126 -159 -165 -55 -37 -123 -69 -192 -91 -58 -18 -245 -14
-309 8 -99 33 -176 79 -241 143 -60 59 -139 174 -139 201 0 7 -6 21 -14 32
-15 23 -30 120 -27 183 1 23 -3 42 -8 42 -13 0 -75 -33 -79 -42 -2 -5 -10 -8
-19 -8 -8 0 -27 -6 -41 -13 -15 -8 -42 -21 -60 -30 -19 -9 -41 -17 -51 -17 -9
0 -26 -7 -37 -15 -10 -8 -34 -15 -52 -15 -18 0 -46 -7 -62 -15 -32 -17 -135
-14 -237 6 -35 7 -65 10 -69 7 -3 -4 2 -18 12 -33 15 -23 18 -52 17 -213 0
-160 -3 -198 -21 -262 -31 -111 -51 -162 -84 -220 -4 -8 -11 -22 -15 -30 -6
-14 -37 -56 -88 -120 -55 -68 -200 -203 -340 -315 -27 -22 -52 -42 -55 -45
-24 -26 -237 -176 -349 -246 -35 -21 -75 -47 -90 -56 -14 -10 -38 -23 -53 -29
-16 -6 -28 -15 -28 -20 0 -5 -5 -9 -10 -9 -6 0 -106 -47 -223 -105 -309 -152
-555 -245 -832 -313 -193 -48 -312 -67 -430 -67 -102 0 -114 2 -170 30 -131
65 -205 195 -191 336 3 35 10 102 15 149 4 47 13 98 20 113 6 16 11 43 11 61
0 19 7 50 15 69 8 20 15 49 15 66 0 16 7 42 15 57 8 16 15 41 15 55 0 15 7 40
15 55 8 16 15 41 15 57 0 15 5 27 10 27 6 0 10 10 10 23 0 13 7 32 15 43 8 10
15 31 15 46 0 15 7 33 15 42 8 8 15 26 15 39 0 14 7 30 15 37 8 7 15 23 15 36
0 12 7 29 15 38 8 8 15 21 15 29 0 8 14 39 30 70 17 31 30 61 30 67 0 6 11 27
23 48 13 20 27 49 31 65 3 15 11 27 16 27 6 0 10 5 10 11 0 7 14 34 30 61 17
26 30 55 30 63 0 8 5 15 10 15 6 0 14 10 19 23 5 12 21 39 35 60 14 21 26 40
26 43 0 3 5 10 10 17 10 11 103 150 125 186 6 9 12 18 15 21 3 3 17 21 30 40
13 19 27 37 30 40 16 15 70 89 70 98 0 6 4 12 9 14 5 2 37 37 71 78 108 131
341 360 365 360 5 0 16 6 24 14 16 13 83 48 151 78 46 21 138 45 226 59 70 12
206 8 342 -9 l64 -8 -7 26 c-4 14 -10 50 -13 80 l-7 55 -80 6 c-156 13 -296
64 -445 163 -99 66 -222 191 -277 281 -16 25 -83 163 -93 190 -26 72 -40 133
-51 228 -38 333 104 669 368 869 72 55 144 98 203 122 25 10 54 23 65 29 11 6
36 14 55 18 19 4 55 13 80 20 57 14 331 15 388 0 23 -6 60 -16 82 -21 23 -6
48 -14 58 -19 17 -8 73 -33 102 -45 17 -8 34 -18 112 -69 66 -43 243 -216 253
-247 3 -11 11 -20 16 -20 5 0 9 -6 9 -14 0 -8 7 -21 15 -30 14 -13 47 17 308
280 400 404 400 404 357 404 -10 0 -23 6 -27 13 -7 12 -265 143 -388 197 -27
12 -63 28 -80 35 -16 8 -68 28 -115 46 -47 18 -99 38 -117 46 -17 7 -38 13
-46 13 -9 0 -19 5 -22 10 -3 6 -15 10 -27 10 -11 0 -34 6 -51 13 -54 23 -294
93 -372 108 -69 14 -139 30 -174 41 -19 6 -60 14 -90 19 -31 5 -99 15 -151 23
-52 9 -140 20 -195 25 -55 6 -136 15 -180 20 -102 14 -386 18 -635 10z m-1670
-1569 c233 -66 415 -218 520 -435 81 -168 105 -325 76 -492 -54 -311 -264
-554 -566 -655 -90 -30 -103 -32 -250 -32 -149 0 -159 1 -248 32 -159 55 -292
145 -382 258 -77 97 -113 161 -151 274 -28 82 -33 112 -37 220 -4 140 9 224
54 336 103 260 340 457 611 509 105 20 273 13 373 -15z m-1420 -2291 c74 -12
191 -50 265 -87 246 -123 426 -350 502 -631 22 -81 26 -117 26 -231 0 -114 -4
-150 -27 -235 -77 -290 -263 -514 -529 -641 -250 -118 -570 -116 -822 5 -256
124 -434 338 -515 621 -28 96 -38 298 -20 406 20 129 84 287 162 403 51 76
198 212 284 263 217 128 416 165 674 127z m2232 -2379 c124 -26 199 -51 308
-105 107 -52 146 -77 241 -152 306 -243 488 -651 466 -1042 -19 -320 -145
-601 -371 -827 -183 -182 -379 -289 -626 -342 -485 -104 -986 87 -1279 488
-67 91 -146 245 -181 350 -59 176 -77 420 -45 606 84 488 455 890 930 1008
130 32 134 33 308 35 115 1 172 -4 249 -19z m3408 -910 c40 -11 87 -27 130
-44 87 -35 215 -139 286 -232 54 -73 114 -178 114 -201 0 -7 4 -21 9 -31 20
-36 41 -161 41 -239 0 -98 -42 -285 -71 -317 -5 -6 -9 -16 -9 -23 0 -27 -107
-168 -169 -223 -75 -67 -136 -110 -155 -110 -8 0 -19 -7 -26 -15 -7 -8 -20
-15 -29 -15 -9 0 -21 -4 -27 -9 -5 -6 -47 -19 -93 -31 -72 -19 -104 -22 -220
-18 -150 5 -195 16 -321 79 -99 50 -194 130 -258 216 -54 73 -106 169 -118
219 -4 16 -10 34 -14 39 -4 6 -13 54 -20 108 -18 140 1 277 56 404 8 17 14 34
14 37 0 6 61 108 70 116 3 3 20 23 39 45 101 119 242 205 406 248 71 19 294
17 365 -3z"/>
<path d="M12324 13041 c-372 -366 -574 -573 -574 -587 0 -5 303 -312 674 -683
l673 -673 28 23 c93 78 580 565 580 580 0 10 -1346 1359 -1356 1359 -3 0 -14
-9 -25 -19z"/>
<path d="M10290 10741 c-31 -4 -65 -13 -77 -19 -12 -7 -31 -12 -42 -12 -11 0
-26 -7 -35 -15 -8 -8 -23 -15 -33 -15 -77 0 -364 -281 -578 -565 -57 -75 -175
-258 -175 -270 0 -7 -7 -15 -15 -19 -8 -3 -15 -12 -15 -21 0 -8 -4 -15 -10
-15 -5 0 -12 -11 -16 -25 -3 -14 -9 -25 -13 -25 -3 0 -17 -24 -31 -52 -13 -29
-27 -55 -30 -58 -3 -3 -14 -18 -24 -35 l-19 -30 22 19 c12 11 31 34 42 52 69
113 210 14 226 -159 7 -84 -8 -148 -66 -281 -69 -156 -94 -234 -87 -275 5 -34
31 -71 49 -71 6 0 71 63 146 139 141 144 193 181 255 181 47 0 95 -42 102 -90
10 -58 -40 -119 -191 -233 -229 -172 -278 -231 -254 -304 27 -84 135 -75 357
28 224 105 341 136 398 106 17 -9 48 -35 70 -59 l40 -43 75 47 c40 26 79 50
84 55 6 4 28 17 50 28 22 11 46 26 53 32 7 7 18 13 23 13 6 0 16 6 23 13 8 6
22 18 32 25 122 82 271 192 324 238 14 12 61 53 105 91 44 39 107 100 140 136
80 88 89 101 126 177 12 25 25 53 30 62 15 30 31 100 42 185 15 118 -12 355
-44 387 -5 6 -9 19 -9 29 0 17 -14 48 -41 97 -5 8 -13 25 -19 38 -5 12 -14 22
-20 22 -5 0 -10 8 -10 19 0 10 -7 24 -15 31 -8 7 -15 17 -15 23 0 5 -11 20
-25 33 -14 13 -25 28 -25 33 0 12 -57 69 -120 120 -25 20 -56 46 -70 59 -14
12 -33 22 -43 22 -10 0 -20 7 -23 15 -4 8 -14 15 -24 15 -11 0 -21 4 -24 9 -7
11 -88 51 -103 51 -6 0 -24 6 -40 14 -89 44 -295 67 -433 47z"/>
</g>
</svg>
