<?xml version="1.0" standalone="no"?>
<!DOCTYPE svg PUBLIC "-//W3C//DTD SVG 20010904//EN"
 "http://www.w3.org/TR/2001/REC-SVG-20010904/DTD/svg10.dtd">
<svg version="1.0" xmlns="http://www.w3.org/2000/svg"
 width="1280.000000pt" height="1280.000000pt" viewBox="0 0 1280.000000 1280.000000"
 preserveAspectRatio="xMidYMid meet">

<g transform="translate(0.000000,1280.000000) scale(0.100000,-0.100000)"
fill="#000000" stroke="none">
<path d="M8195 8979 c-54 -20 -94 -58 -105 -97 -17 -66 5 -116 113 -250 87
-107 121 -169 146 -261 22 -82 41 -224 41 -309 0 -106 -68 -246 -134 -277 -55
-26 -155 -123 -182 -177 -14 -27 -31 -51 -38 -54 -8 -3 -43 1 -78 10 -85 20
-148 30 -175 27 -11 -1 -24 3 -28 8 -3 6 -21 11 -40 11 -19 0 -36 4 -39 8 -2
4 -28 9 -57 10 l-52 2 6 -47 c10 -86 46 -266 71 -357 40 -143 95 -202 306
-328 58 -34 141 -92 185 -128 100 -83 133 -105 166 -113 20 -5 28 -15 33 -41
14 -76 64 -83 157 -20 l54 36 111 -4 c60 -3 121 -11 135 -18 13 -7 45 -36 70
-63 44 -50 46 -51 76 -38 17 7 44 26 59 43 37 38 75 58 111 58 16 0 39 7 51
16 27 18 143 158 197 235 34 50 44 58 80 62 22 3 72 15 111 26 73 20 97 37
151 108 15 20 51 59 78 87 99 101 113 121 119 183 10 82 25 253 32 355 l7 86
-39 11 c-55 15 -473 13 -548 -3 -44 -9 -63 -19 -78 -39 -39 -53 -53 -53 -111
-1 -29 27 -104 74 -171 109 -66 34 -121 66 -123 71 -1 5 15 18 37 28 50 24
146 109 165 147 21 40 19 78 -7 116 -25 36 -67 58 -97 50 -39 -10 -45 7 -27
73 28 100 10 184 -53 244 -26 25 -35 28 -72 23 -48 -6 -73 -32 -110 -109 -12
-27 -26 -48 -29 -48 -4 0 -10 37 -13 83 -14 223 -90 361 -235 430 -71 33 -175
45 -227 26z m149 -54 c111 -32 190 -108 237 -225 17 -43 23 -82 27 -180 5
-146 -15 -270 -73 -445 -19 -58 -35 -112 -35 -120 0 -27 19 -16 38 23 30 59
146 339 177 425 57 161 133 190 186 72 17 -38 17 -45 3 -98 -22 -87 -78 -186
-154 -276 -39 -46 -70 -87 -70 -92 0 -23 65 25 193 141 15 15 44 35 63 45 32
17 38 18 62 4 55 -31 36 -89 -54 -163 -34 -28 -88 -64 -121 -81 -66 -34 -93
-55 -70 -55 8 0 56 -21 108 -46 52 -26 117 -56 145 -69 28 -12 80 -50 115 -83
l64 -60 -29 -54 c-62 -114 -73 -135 -101 -198 -33 -76 -41 -120 -21 -120 25 0
203 -197 230 -255 15 -29 26 -59 26 -66 0 -7 7 -21 16 -30 20 -22 24 -14 -88
-159 -70 -89 -77 -95 -119 -102 -63 -9 -264 -8 -404 3 -66 5 -182 13 -258 18
-84 6 -145 15 -155 23 -9 7 -54 46 -99 86 -72 64 -85 81 -97 125 -15 51 -19
92 -17 151 1 28 2 29 21 11 35 -32 145 4 212 69 20 20 41 36 47 36 6 0 11 5
11 10 0 6 -10 8 -24 4 -22 -5 -25 -1 -40 48 -20 69 -42 101 -66 93 -10 -3 -35
-8 -56 -10 -45 -6 -63 -20 -81 -62 -11 -28 -11 -39 1 -75 17 -48 13 -62 -14
-48 -25 14 -43 83 -35 135 7 47 35 80 78 90 15 4 30 11 33 16 7 12 -19 12 -32
0 -5 -5 -24 -12 -41 -16 -32 -6 -33 -6 -33 27 0 37 20 115 42 166 22 49 160
184 260 253 5 3 22 46 39 95 28 79 31 102 31 204 1 174 -39 345 -104 453 -17
29 -59 88 -93 132 -75 97 -85 115 -85 152 0 38 20 64 61 79 47 17 82 17 143
-1z m1529 -1197 c15 -12 16 -23 7 -98 -6 -47 -15 -130 -20 -185 -5 -55 -15
-120 -22 -144 -13 -44 -81 -129 -172 -216 -24 -22 -48 -49 -54 -60 -8 -16 -34
-26 -109 -43 -164 -36 -172 -37 -179 -16 -23 70 -62 129 -138 209 -117 122
-120 128 -93 190 35 80 115 226 152 277 39 53 71 77 118 88 57 14 491 12 510
-2z m-2153 -142 c25 -9 59 -16 77 -16 17 0 35 -4 38 -10 3 -5 15 -10 26 -10
11 0 52 -7 90 -16 l71 -16 -6 -47 c-17 -129 -16 -252 2 -406 18 -148 18 -200
3 -178 -3 5 -49 39 -102 75 -109 76 -219 176 -219 199 0 8 -4 19 -9 25 -13 12
-55 178 -76 296 -20 109 -15 126 32 122 15 -1 48 -9 73 -18z m479 -293 c10
-18 -2 -51 -22 -65 -18 -11 -47 11 -47 35 0 44 49 65 69 30z"/>
<path d="M8510 7338 c-20 -34 -33 -96 -28 -137 2 -17 -4 -28 -18 -36 -20 -10
-19 -12 18 -30 22 -10 45 -26 51 -35 21 -30 61 -44 122 -44 66 0 112 18 129
49 6 11 19 33 30 48 14 22 16 33 8 50 -6 12 -13 39 -17 59 -7 42 -28 64 -25
27 6 -67 -1 -118 -19 -140 l-19 -24 5 61 c4 48 2 67 -12 88 -40 61 -125 70
-166 18 -15 -20 -20 -39 -19 -77 3 -74 1 -87 -12 -83 -8 3 -15 32 -19 74 -5
53 -2 80 11 117 21 54 9 63 -20 15z m140 -57 c13 -25 4 -48 -23 -55 -25 -6
-47 9 -47 33 0 40 51 56 70 22z"/>
<path d="M8895 7254 l-40 -14 53 4 c29 2 58 8 65 15 15 15 -26 13 -78 -5z"/>
<path d="M8380 7200 c0 -12 42 -31 50 -23 6 5 -30 33 -42 33 -4 0 -8 -5 -8
-10z"/>
<path d="M9362 7540 c0 -14 2 -19 5 -12 2 6 2 18 0 25 -3 6 -5 1 -5 -13z"/>
<path d="M9382 7460 c0 -14 2 -19 5 -12 2 6 2 18 0 25 -3 6 -5 1 -5 -13z"/>
<path d="M9450 7282 c0 -4 9 -15 20 -25 24 -20 27 -6 4 17 -17 18 -24 20 -24
8z"/>
<path d="M5795 8935 c-92 -30 -247 -103 -321 -150 -32 -21 -79 -49 -103 -62
-24 -14 -82 -50 -129 -81 -164 -109 -217 -142 -228 -142 -7 0 -14 -4 -16 -9
-6 -17 -102 -91 -118 -91 -23 0 -229 -102 -280 -139 -25 -18 -81 -55 -125 -84
-97 -62 -239 -196 -310 -293 -108 -144 -240 -436 -279 -614 -40 -183 -51 -223
-98 -349 -83 -223 -107 -269 -214 -396 -120 -143 -341 -543 -390 -705 -63
-208 -33 -449 72 -577 87 -106 153 -150 199 -133 23 9 26 14 21 38 -39 155
-14 335 61 455 50 80 135 187 144 181 5 -3 9 -17 9 -32 0 -77 82 -279 150
-367 22 -29 39 -74 60 -154 47 -177 95 -300 141 -360 32 -41 25 -52 -22 -36
-94 34 -161 8 -243 -91 -31 -38 -111 -139 -178 -224 -144 -182 -224 -268 -327
-354 -119 -99 -288 -217 -376 -261 -49 -26 -85 -51 -95 -68 -13 -24 -13 -28 6
-54 26 -35 65 -54 121 -61 73 -8 74 -26 1 -72 -34 -22 -100 -59 -145 -83 -64
-32 -85 -49 -93 -71 -13 -38 -13 -40 8 -63 86 -98 337 -112 572 -33 l61 21 33
-36 c32 -34 36 -35 102 -35 228 1 561 285 751 640 26 49 35 56 88 77 33 13 68
26 79 29 20 6 20 6 1 -12 -20 -20 -76 -102 -114 -168 -98 -168 -228 -339 -378
-496 -39 -41 -81 -87 -93 -103 l-21 -27 635 0 635 0 53 -25 c29 -14 73 -36 98
-50 40 -23 52 -24 120 -19 70 6 80 4 140 -25 75 -36 88 -36 281 -15 147 16
268 14 372 -7 64 -13 371 -24 567 -21 145 3 284 23 400 59 68 20 78 28 82 61
l3 27 344 3 c299 2 347 4 362 18 20 18 89 130 89 145 0 5 4 17 9 27 12 21 34
76 51 122 6 19 16 44 20 55 23 54 98 264 104 289 9 38 108 134 266 258 103 81
160 139 185 189 29 55 17 147 -33 257 -39 84 -47 132 -24 132 15 0 -6 167 -28
225 -21 55 -99 182 -151 246 l-21 27 31 65 c17 36 31 69 31 74 0 5 26 21 58
37 146 71 171 98 275 303 112 220 162 375 146 456 -12 66 -58 196 -81 229 -10
15 -30 52 -43 83 l-25 55 -45 0 c-50 0 -50 0 -9 -55 23 -31 45 -79 84 -180 13
-33 28 -66 34 -74 6 -8 11 -51 11 -95 -1 -62 -8 -105 -34 -186 -33 -108 -94
-245 -139 -313 -30 -46 -124 -115 -203 -150 -51 -22 -58 -30 -88 -90 -49 -99
-53 -100 -93 -15 -77 161 -83 184 -81 298 1 58 7 145 13 193 15 122 5 152 -62
197 -87 58 -295 262 -443 435 -83 96 -162 205 -235 321 -25 40 -50 80 -57 91
-11 17 -14 16 -42 -17 -29 -33 -30 -40 -31 -121 0 -91 -13 -249 -30 -359 -5
-36 -21 -150 -35 -255 -14 -104 -30 -224 -35 -265 -6 -41 -10 -100 -10 -131 0
-66 2 -65 -110 -85 -116 -21 -114 -22 -203 62 -90 83 -127 107 -160 102 -29
-4 -24 -28 19 -88 59 -83 40 -92 -57 -28 -81 54 -229 200 -301 298 -98 132
-188 321 -197 415 l-6 60 -105 54 c-58 29 -140 78 -184 108 -43 30 -82 51 -86
46 -18 -18 -186 -361 -208 -423 -92 -262 -94 -270 -100 -398 -4 -95 -1 -138
13 -195 23 -97 48 -175 81 -247 15 -33 24 -63 21 -67 -4 -3 -34 4 -67 17 -65
24 -150 79 -218 142 -24 22 -48 38 -53 36 -6 -2 -20 -20 -32 -41 l-21 -38 47
-94 c98 -198 202 -349 341 -493 69 -72 87 -95 76 -102 -27 -17 -165 -23 -260
-12 -52 6 -131 23 -174 36 -44 14 -82 24 -84 22 -12 -13 18 -57 79 -117 72
-71 84 -93 47 -85 -13 3 -63 10 -113 16 -144 18 -296 69 -401 136 -55 35 -227
203 -265 259 -12 18 -31 38 -41 44 -35 21 -41 4 -35 -93 14 -203 66 -379 159
-528 12 -20 20 -39 16 -43 -9 -9 -154 70 -217 118 -134 103 -299 296 -352 412
-39 87 -77 208 -94 300 -22 125 -27 145 -36 151 -5 3 -9 22 -9 43 0 20 -5 42
-11 48 -11 11 -7 324 6 473 6 60 5 63 -8 39 -25 -45 -30 -474 -7 -543 17 -53
4 -57 -36 -12 -42 48 -67 115 -94 246 -28 141 -27 152 17 194 48 45 40 53 -17
15 -135 -89 -306 -319 -357 -478 -8 -25 -16 -91 -18 -145 -3 -55 -7 -102 -10
-104 -11 -11 -53 41 -84 103 -77 153 -81 298 -14 495 59 174 248 506 406 712
74 97 86 119 115 198 11 30 56 143 100 250 44 107 96 251 116 320 21 69 53
160 73 203 29 61 34 80 24 86 -38 24 94 233 241 382 100 101 208 174 328 223
51 21 136 60 195 89 22 11 99 63 170 116 144 107 280 201 292 201 4 0 19 11
33 25 14 13 64 44 110 68 47 24 125 65 174 92 93 51 220 95 272 95 40 0 142
-33 224 -73 48 -24 91 -58 166 -132 104 -104 158 -177 189 -257 21 -56 40 -64
31 -14 -4 21 -2 37 6 44 23 18 156 82 172 82 9 0 16 4 16 9 0 12 -64 21 -68
10 -2 -5 -9 -9 -15 -9 -7 0 -36 -16 -64 -35 -53 -35 -73 -43 -73 -26 0 5 -16
32 -35 61 -19 29 -32 57 -29 62 13 21 239 -5 300 -34 25 -12 65 -8 212 16 97
17 107 17 179 1 172 -38 409 -196 716 -477 70 -64 165 -166 298 -321 11 -13
49 11 49 31 0 21 -152 203 -180 216 -10 5 -31 27 -46 50 -14 22 -69 79 -121
126 -52 47 -105 94 -116 105 -47 44 -118 98 -155 118 -22 12 -75 46 -118 75
-210 143 -351 177 -585 142 -86 -12 -102 -12 -165 3 -44 11 -110 17 -184 17
l-116 0 -64 66 c-79 80 -191 156 -262 178 -148 44 -190 45 -293 11z m1677
-2232 c81 -111 207 -269 285 -359 56 -65 63 -83 37 -105 -13 -10 -26 -10 -72
0 -149 34 -192 39 -240 26 -66 -17 -104 -39 -140 -79 -17 -20 -33 -32 -36 -27
-3 4 8 86 24 182 15 96 34 238 41 317 7 78 16 142 21 142 4 0 40 -44 80 -97z
m-1598 -74 c14 -11 72 -46 128 -78 107 -61 108 -62 128 -126 20 -64 104 -235
144 -294 33 -49 45 -81 29 -81 -3 0 -20 11 -37 24 -75 57 -116 70 -211 70
-129 0 -242 -44 -414 -161 -43 -29 -68 -40 -74 -34 -12 12 15 122 70 291 50
155 176 410 202 410 5 0 20 -9 35 -21z m2145 -535 c80 -75 101 -108 84 -125
-12 -12 -203 166 -203 187 0 32 43 10 119 -62z m-708 -133 c-21 -110 -24 -270
-6 -355 16 -79 48 -159 72 -184 10 -11 12 -4 7 35 -3 26 -10 68 -16 93 -12 53
-12 239 1 272 8 21 10 19 16 -18 10 -56 69 -123 110 -125 66 -3 91 2 116 24
26 23 49 74 49 111 0 47 14 51 72 23 74 -36 88 -68 88 -195 -1 -127 -16 -241
-35 -262 -11 -12 -38 -19 -83 -23 -72 -6 -226 8 -254 24 -27 14 -45 12 -28 -4
19 -18 147 -36 275 -39 l99 -3 34 65 34 65 -4 180 c-4 164 -7 187 -31 255 -15
41 -27 76 -27 78 0 11 34 -4 78 -34 67 -45 119 -124 130 -196 5 -38 12 -54 24
-56 13 -2 21 10 33 50 17 57 31 85 39 77 3 -3 6 -131 7 -284 1 -363 -9 -407
-128 -531 -151 -159 -361 -281 -647 -376 -131 -43 -194 -59 -401 -98 -189 -35
-293 -42 -585 -38 -172 3 -320 10 -355 17 -33 6 -85 17 -115 23 -103 20 -285
66 -335 85 -34 13 -54 27 -63 46 -7 15 -24 34 -38 42 -13 8 -36 22 -50 31 -39
24 -17 32 61 24 123 -14 341 21 352 57 2 6 -50 65 -115 131 -119 118 -195 219
-281 371 -48 85 -60 121 -40 121 8 0 50 -16 94 -35 88 -38 126 -48 199 -49 49
-1 49 -1 65 -46 28 -79 92 -170 120 -170 17 0 14 11 -38 116 -119 241 -109
306 63 405 38 22 72 36 76 32 4 -4 15 -29 25 -55 19 -53 56 -95 95 -110 52
-20 160 18 160 57 0 7 5 15 12 17 8 3 12 38 13 104 1 54 3 101 4 103 3 10 45
-37 61 -69 46 -92 58 -304 22 -403 -12 -33 -31 -68 -43 -78 -21 -18 -21 -21
-7 -35 36 -37 102 39 117 136 29 177 -16 418 -100 539 -16 24 -28 46 -25 48 3
3 26 -4 51 -16 24 -11 55 -21 68 -21 15 0 51 -24 98 -67 107 -97 145 -126 224
-166 122 -62 165 -57 138 14 -6 16 -9 29 -7 29 2 0 26 -16 53 -35 52 -38 92
-44 174 -26 23 5 68 15 100 21 74 15 78 24 86 197 5 112 9 134 26 153 18 20
20 20 24 5 1 -10 -2 -43 -8 -74z m247 6 c26 -21 44 -71 45 -126 0 -72 -14 -98
-57 -106 -68 -13 -106 36 -105 132 1 71 8 91 40 109 24 13 53 10 77 -9z
m-1380 -177 c51 -100 15 -210 -68 -210 -33 0 -43 6 -65 34 -15 20 -30 59 -37
93 -13 73 1 110 51 135 48 24 89 7 119 -52z m-508 -177 c0 -49 3 -106 6 -128
5 -39 5 -39 -25 21 -40 83 -53 132 -40 155 9 18 36 38 52 39 4 0 7 -39 7 -87z
m2552 -290 c17 -27 51 -71 74 -100 87 -107 156 -243 168 -333 10 -71 -4 -81
-53 -37 -23 20 -55 39 -76 43 -54 10 -162 -4 -206 -26 -21 -11 -40 -16 -43
-11 -3 5 -6 38 -7 74 -1 58 2 72 29 114 58 90 72 137 72 234 0 49 2 89 5 89 2
0 19 -21 37 -47z m-3650 -390 c25 -22 23 -48 -6 -66 -29 -20 -36 -14 -36 33 0
52 11 61 42 33z m3443 -94 c-7 -103 -11 -110 -78 -159 -99 -72 -135 -108 -152
-154 -9 -24 -22 -43 -28 -43 -38 4 -147 -18 -175 -34 -18 -10 -35 -19 -38 -19
-2 0 -18 29 -34 64 -41 87 -49 92 -100 66 -22 -11 -59 -37 -80 -57 -38 -34
-42 -35 -73 -23 -69 28 -63 36 48 71 148 46 428 172 540 244 28 18 75 53 105
78 30 25 58 43 62 41 5 -3 6 -37 3 -75z m-3329 -10 c3 -6 37 -31 75 -55 38
-25 69 -47 69 -49 0 -16 -56 -117 -81 -148 -50 -61 -86 -46 -138 57 -18 36
-35 83 -38 104 -5 35 -2 42 33 70 40 33 68 40 80 21z m3677 -17 c34 -31 131
-177 154 -232 26 -64 29 -133 8 -183 -14 -34 -173 -186 -235 -226 -14 -8 -46
-36 -73 -60 -65 -62 -144 -120 -195 -144 -56 -28 -62 -19 -62 89 0 109 25 237
58 293 23 39 27 60 32 155 5 108 6 111 31 120 49 17 58 6 83 -106 9 -39 67
-111 106 -130 41 -20 108 -23 145 -6 43 19 28 28 -38 21 -60 -5 -65 -4 -98 25
-19 17 -48 55 -63 85 -25 47 -28 62 -23 106 l6 51 -42 0 c-78 0 -113 53 -64
97 72 66 220 91 270 45z m-4360 -43 c12 -7 50 -34 84 -61 38 -30 76 -51 98
-55 25 -4 56 -24 104 -67 37 -33 109 -86 160 -116 51 -30 94 -57 96 -60 12
-20 -140 -210 -196 -246 -40 -25 -85 -32 -91 -14 -5 17 -56 -50 -124 -165 -84
-142 -154 -232 -256 -333 -133 -132 -241 -198 -362 -221 -92 -17 -100 -4 -38
59 47 47 67 90 43 90 -5 0 -38 -15 -73 -33 -156 -83 -343 -137 -468 -137 -73
0 -194 26 -210 45 -13 16 -17 13 191 145 184 117 246 168 236 194 -8 19 -8 19
-92 -3 -81 -21 -215 -9 -215 19 0 6 14 19 31 28 121 67 369 252 494 369 61 57
193 207 270 308 38 50 85 107 104 127 18 21 40 46 47 57 19 27 104 81 126 81
11 0 29 -5 41 -11z m1027 -112 c41 -9 123 -23 183 -32 59 -8 158 -30 220 -49
61 -19 153 -47 202 -61 130 -38 184 -56 152 -51 -23 3 -34 -4 -59 -35 l-31
-39 -43 40 c-50 46 -87 55 -191 47 -51 -4 -92 -14 -128 -31 -67 -33 -80 -62
-72 -154 5 -58 16 -106 56 -257 5 -16 18 -55 31 -85 16 -40 20 -66 16 -98 -8
-61 -21 -79 -61 -86 -38 -7 -46 -29 -23 -65 16 -25 3 -51 -25 -51 -62 0 -294
-77 -317 -105 -18 -21 -3 -66 45 -142 24 -37 42 -70 40 -73 -6 -9 -1145 -13
-1145 -4 0 5 31 40 69 79 99 101 361 449 361 479 0 4 32 55 70 115 39 59 70
116 70 126 0 24 102 175 153 225 22 22 51 43 66 46 54 11 71 23 71 49 0 16 17
42 53 77 29 29 64 77 77 106 28 60 21 59 160 29z m2966 -39 c-4 -13 -10 -59
-13 -103 -7 -92 -14 -110 -45 -118 -17 -5 -31 3 -60 34 -21 22 -38 46 -38 52
0 21 43 73 96 116 56 46 69 50 60 19z m-1986 -178 c78 -13 100 -19 100 -29 0
-4 -20 -23 -44 -44 l-45 -37 -43 41 c-24 22 -61 49 -83 59 l-40 20 45 0 c25 0
74 -5 110 -10z m1225 -9 c91 -32 97 -103 12 -141 -23 -10 -58 -31 -77 -45 -38
-28 -79 -27 -112 2 -24 22 -13 33 32 33 49 0 85 39 76 82 -19 91 -19 88 0 87
11 0 42 -8 69 -18z m-1642 -22 c12 -7 39 -27 60 -46 35 -31 42 -34 95 -31 56
3 57 3 60 36 3 24 8 32 23 32 25 0 100 -51 128 -85 l20 -26 -64 -66 -63 -67
-60 62 c-52 54 -65 62 -96 62 -20 0 -56 -10 -81 -21 -58 -27 -68 -59 -31 -98
57 -60 12 -85 -74 -41 -88 45 -211 199 -194 244 5 13 35 27 104 50 30 9 152 6
173 -5z m752 -19 c128 -73 235 -96 310 -64 46 19 51 15 25 -19 -11 -14 -20
-32 -20 -41 0 -8 -19 -28 -42 -45 -55 -38 -92 -78 -108 -118 -8 -21 -19 -33
-31 -33 -35 0 -186 -170 -255 -287 -38 -66 -48 -71 -71 -36 -12 18 -9 26 34
84 26 35 71 87 100 115 29 28 50 54 46 58 -22 21 -53 -5 -160 -136 -30 -38
-62 -68 -70 -68 -9 0 -44 20 -79 45 -34 25 -71 45 -81 45 -39 0 -48 15 -35 58
16 54 15 72 -7 116 l-20 37 68 78 c112 126 207 203 283 226 58 18 54 19 113
-15z m553 -3 c23 -7 40 -16 36 -20 -4 -4 3 -21 16 -39 23 -31 23 -32 5 -65
-17 -30 -74 -83 -90 -83 -6 0 -31 18 -82 61 -7 5 -13 32 -13 58 0 45 3 50 38
74 44 31 37 30 90 14z m936 -8 c19 -28 10 -49 -20 -49 -20 0 -24 5 -24 28 0
46 19 55 44 21z m-104 -11 c0 -19 -2 -20 -10 -8 -13 19 -13 30 0 30 6 0 10
-10 10 -22z m-212 -14 c3 -23 -18 -37 -43 -28 -16 6 -20 35 -8 48 14 14 48 1
51 -20z m-393 -4 c0 -19 -32 -25 -51 -9 -12 10 -12 14 -2 21 20 12 53 5 53
-12z m581 -7 c-10 -10 -19 5 -10 18 6 11 8 11 12 0 2 -7 1 -15 -2 -18z m200
-60 c-27 -90 -30 -167 -14 -368 3 -33 -1 -41 -22 -53 -28 -15 -155 -9 -175 8
-7 6 -27 54 -46 108 -37 106 -43 194 -19 266 13 41 14 41 130 21 24 -5 49 0
80 14 57 25 73 26 66 4z m-1023 -202 c5 -22 -9 -176 -18 -191 -9 -14 -31 -12
-45 5 -9 11 -9 24 4 62 8 26 18 69 22 96 6 48 27 64 37 28z m-1025 -97 c2 -11
-6 -28 -17 -38 -16 -14 -23 -15 -41 -6 -27 14 -22 41 10 57 31 16 44 12 48
-13z m636 -121 c6 -120 10 -150 23 -160 9 -7 20 -13 24 -13 11 0 112 70 144
101 39 36 47 36 79 -2 31 -36 32 -62 8 -121 -11 -24 -25 -80 -32 -125 -12 -78
-11 -84 9 -126 12 -25 55 -78 96 -119 77 -77 86 -92 60 -102 -47 -18 -280 -28
-407 -18 -139 12 -168 17 -168 34 0 26 -55 121 -100 172 -45 51 -90 129 -90
154 0 5 -14 15 -30 22 -24 10 -28 15 -19 26 21 25 73 16 122 -21 25 -19 51
-35 56 -35 16 0 13 61 -4 111 -18 50 -13 82 21 154 24 49 170 215 191 215 6 0
13 -56 17 -147z m1593 15 c-8 -18 -24 -53 -35 -78 -11 -25 -49 -120 -86 -213
-37 -92 -77 -186 -90 -210 l-24 -42 -339 -5 c-219 -3 -341 -1 -346 5 -4 6 -6
45 -4 88 3 70 7 82 43 133 l38 57 13 -29 c7 -16 12 -39 13 -51 0 -31 38 -130
56 -148 31 -30 67 -17 240 91 93 58 179 115 192 127 24 22 52 102 52 149 0 18
6 31 18 34 66 22 127 51 192 93 41 27 76 45 78 40 2 -4 -3 -23 -11 -41z
m-1197 -97 c0 -16 -14 -65 -32 -108 -19 -47 -33 -102 -36 -140 -4 -53 0 -68
24 -112 25 -48 80 -106 147 -158 38 -29 34 -37 -8 -13 -19 11 -42 17 -50 14
-8 -4 -15 -1 -15 5 0 6 -6 11 -12 11 -21 0 -116 109 -129 147 -19 58 -5 158
34 239 19 38 40 86 48 107 16 44 29 48 29 8z m838 7 c33 -33 -2 -121 -69 -178
-28 -23 -51 -41 -53 -39 -2 2 -8 20 -15 39 -11 33 -10 35 32 71 27 24 48 53
57 78 14 42 27 50 48 29z m-2218 -37 c0 -17 5 -33 10 -36 6 -3 10 -33 10 -65
0 -53 -3 -61 -25 -76 -31 -20 -90 -13 -118 15 -19 19 -39 94 -31 116 5 13 78
45 103 45 10 0 21 7 25 15 9 26 26 17 26 -14z m1396 -192 l-14 -34 -1 42 c-1
23 4 54 11 70 l12 28 4 -36 c2 -20 -4 -52 -12 -70z m-1209 -3 c27 -24 28 -24
9 -45 -32 -35 -76 -21 -76 24 0 21 17 45 31 45 5 0 20 -11 36 -24z m419 -58
c21 -35 59 -91 85 -125 56 -73 79 -118 82 -159 2 -27 0 -29 -33 -28 -96 4
-248 18 -267 25 -36 13 -31 74 12 156 27 51 35 79 35 118 0 50 12 75 36 75 7
0 30 -28 50 -62z m-312 -7 c10 -16 -5 -41 -25 -41 -19 0 -27 29 -12 43 9 10
31 9 37 -2z m1232 -189 c-8 -7 -96 80 -96 96 0 9 21 -7 50 -38 27 -29 48 -55
46 -58z m-1746 -8 c10 -18 11 -27 2 -36 -15 -15 -40 -3 -54 27 -9 21 -9 28 2
35 19 11 35 3 50 -26z"/>
<path d="M6865 5029 c-22 -5 -46 -17 -52 -26 -27 -35 -9 -303 19 -303 4 0 8
-6 8 -12 1 -18 36 -58 51 -58 7 0 1 12 -14 28 -68 70 -78 320 -14 345 28 11
205 30 221 24 13 -5 16 -22 17 -89 l0 -83 14 50 c8 28 14 69 15 93 l0 42 -112
-1 c-62 -1 -131 -5 -153 -10z"/>
<path d="M7080 4837 c0 -14 -48 -119 -59 -127 -3 -3 -15 -16 -26 -29 l-20 -24
21 13 c40 25 120 180 93 180 -5 0 -9 -6 -9 -13z"/>
<path d="M4752 8218 c-18 -11 -31 -22 -29 -25 6 -6 57 19 57 28 0 4 8 10 18
12 11 3 12 5 2 5 -8 0 -30 -9 -48 -20z"/>
<path d="M4668 8178 c16 -16 15 -28 -2 -28 -8 0 -16 -7 -20 -15 -8 -21 4 -19
30 6 24 23 22 49 -4 49 -12 0 -13 -3 -4 -12z"/>
<path d="M4626 8103 c-4 -5 -11 -8 -15 -8 -13 0 -71 -53 -71 -65 0 -7 -7 -10
-15 -6 -8 3 -15 2 -15 -3 0 -21 16 -18 49 12 20 18 47 40 60 49 14 10 22 20
20 23 -3 3 -9 2 -13 -2z"/>
<path d="M5572 8050 c0 -14 2 -19 5 -12 2 6 2 18 0 25 -3 6 -5 1 -5 -13z"/>
<path d="M5548 7970 c-4 -25 -9 -56 -13 -70 -3 -14 2 -7 10 15 9 22 14 54 13
70 -3 25 -4 23 -10 -15z"/>
<path d="M4486 7987 c3 -10 9 -15 12 -12 3 3 0 11 -7 18 -10 9 -11 8 -5 -6z"/>
<path d="M4440 7964 c0 -14 3 -14 15 -4 8 7 15 14 15 16 0 2 -7 4 -15 4 -8 0
-15 -7 -15 -16z"/>
<path d="M4333 7860 c-82 -82 -124 -143 -109 -157 5 -4 11 -3 13 4 2 6 13 21
24 34 10 12 34 42 52 65 17 24 37 44 44 44 6 0 17 13 24 29 7 16 16 28 20 25
7 -4 22 26 16 33 -2 2 -40 -33 -84 -77z"/>
<path d="M4196 7685 c-3 -8 -1 -15 4 -15 6 0 10 7 10 15 0 8 -2 15 -4 15 -2 0
-6 -7 -10 -15z"/>
<path d="M5031 6674 c0 -11 3 -14 6 -6 3 7 2 16 -1 19 -3 4 -6 -2 -5 -13z"/>
<path d="M4144 6040 c0 -58 1 -81 3 -52 2 28 2 76 0 105 -2 28 -3 5 -3 -53z"/>
<path d="M4163 5820 c0 -30 2 -43 4 -27 2 15 2 39 0 55 -2 15 -4 2 -4 -28z"/>
<path d="M4181 5704 c0 -11 3 -14 6 -6 3 7 2 16 -1 19 -3 4 -6 -2 -5 -13z"/>
</g>
</svg>
